<svg width="104" height="64" viewBox="0 0 104 64" fill="none" xmlns="http://www.w3.org/2000/svg">
<g clip-path="url(#clip0_243_78)">
<path d="M96.6294 7.86695C96.6294 7.94157 96.6294 8.03485 96.6101 8.09082C96.5134 8.8184 96.5134 9.54598 96.5713 10.2922C96.6101 10.4788 96.6487 10.6653 96.8036 10.8146C97.055 11.0944 97.4418 11.0385 97.5966 10.7026C97.6741 10.5348 97.6741 10.3668 97.6353 10.1989C97.4418 9.49001 97.4032 8.74378 97.3839 8.01619C97.3839 7.97888 97.3839 7.92291 97.3839 7.86695C97.5966 7.84829 97.7901 7.82963 97.9641 7.82963C98.0996 7.81098 98.2157 7.79232 98.3124 7.73635C98.6025 7.58711 98.6025 7.26997 98.293 7.12071C98.1769 7.06474 98.0222 7.04608 97.8869 7.04608C97.4032 7.06474 96.9196 7.06474 96.4359 7.06474C96.2619 7.06474 96.0878 7.0834 95.9136 7.10205C95.8169 7.12071 95.7008 7.12071 95.6236 7.17668C95.488 7.23264 95.4108 7.32592 95.4108 7.45651C95.4301 7.58711 95.488 7.66173 95.6236 7.7177C95.7008 7.77367 95.7976 7.79232 95.8943 7.79232C96.1264 7.81098 96.378 7.84829 96.6294 7.86695ZM101.949 8.72512C101.949 8.74378 101.968 8.76243 101.968 8.76243C102.046 9.26614 102.123 9.7512 102.181 10.2362C102.201 10.4041 102.22 10.5534 102.336 10.684C102.587 11.0011 102.974 10.9638 103.148 10.628C103.226 10.4601 103.245 10.2922 103.207 10.1057C103.09 9.54598 103.032 8.9863 102.916 8.44528C102.839 8.10947 102.742 7.79232 102.646 7.49383C102.587 7.30727 102.452 7.17667 102.22 7.15802C101.988 7.12071 101.814 7.23264 101.717 7.40055C101.601 7.54979 101.504 7.69904 101.427 7.86695C101.291 8.16544 101.175 8.46394 101.021 8.74378C101.001 8.8184 100.982 8.87437 100.943 8.93033C100.924 8.89302 100.905 8.87437 100.905 8.87437C100.653 8.40797 100.421 7.94157 100.169 7.49383C100.131 7.45651 100.111 7.4192 100.092 7.38189C99.976 7.21399 99.8406 7.12071 99.6278 7.12071C99.4344 7.13936 99.2795 7.2513 99.1829 7.4192C99.1441 7.49383 99.1441 7.54979 99.1248 7.62442C99.0474 8.22141 98.9507 8.8184 98.8734 9.41539C98.8346 9.7512 98.8153 10.087 98.8153 10.4228C98.796 10.4974 98.8153 10.5907 98.8539 10.6653C98.8927 10.8146 99.0088 10.9079 99.1635 10.9265C99.3569 10.9452 99.4923 10.8892 99.5504 10.74C99.6084 10.628 99.6278 10.5348 99.6471 10.4415C99.7246 10.1057 99.7825 9.78851 99.8406 9.47136C99.8793 9.2848 99.8986 9.13555 99.9567 8.93033C99.9953 9.00496 100.034 9.06093 100.073 9.11689C100.247 9.34077 100.421 9.56464 100.634 9.7512C100.846 9.90044 101.021 9.88179 101.195 9.71388C101.233 9.67657 101.253 9.65792 101.291 9.6206C101.466 9.35942 101.678 9.09824 101.852 8.83705C101.891 8.79974 101.91 8.76243 101.949 8.72512Z" fill="#8D99AE"/>
<path d="M57.3768 8.23347C57.2423 8.58802 57.2167 8.84345 57.2788 9.05575C57.3473 9.34445 57.5253 9.43897 57.7669 9.36554C60.039 8.82368 65.0214 10.3617 66.8661 10.7904C67.3011 10.8804 67.655 10.3388 67.3582 9.85321C66.9249 9.38295 61.9447 7.36962 60.0445 7.25984C59.2996 7.21925 57.968 7.03504 57.3768 8.23347Z" fill="#8D99AE"/>
<path d="M76.8491 1.71608C77.0912 1.85087 77.2266 1.97945 77.2934 2.12312C77.3929 2.31157 77.3404 2.44195 77.1732 2.50848C75.6713 3.21542 73.6727 6.25893 72.8659 7.3086C72.6703 7.55007 72.2193 7.40975 72.1511 7.01266C72.1651 6.56367 73.9368 3.26079 74.9255 2.3612C75.3141 2.00997 75.956 1.32081 76.8491 1.71608Z" fill="#8D99AE"/>
<path d="M64.8881 0.217885C65.1791 0.00642746 65.4814 -0.0676736 65.6358 0.0697472C67.9019 1.93876 69.1036 4.89852 69.8477 7.6081C69.8757 7.67123 69.8775 7.76182 69.8551 7.85632C69.8458 7.93709 69.7846 8.02241 69.6874 8.08844C69.5836 8.16132 69.4942 8.18352 69.4522 8.12071C68.459 6.81792 62.7865 1.74897 64.8881 0.217885Z" fill="#8D99AE"/>
<path d="M16.901 32.622C17.4441 32.232 18.0346 31.9074 18.6594 31.6554C19.3131 31.4752 20.0099 31.505 20.6444 31.7407C21.2788 31.9763 21.8166 32.4047 22.1761 32.9612C22.4978 33.5162 22.6236 34.1571 22.5348 34.7872C22.446 35.4172 22.1474 36.0023 21.6838 36.4546C21.3244 36.8211 20.9164 37.1404 20.4706 37.4042C18.4836 38.6422 16.479 39.8122 14.4744 41.0502C14.0643 41.36 13.6291 41.638 13.1732 41.8812C12.4797 42.2147 11.6872 42.304 10.9326 42.1337C10.1781 41.9635 9.50896 41.5442 9.04099 40.9485C8.69116 40.5267 8.39592 40.0655 8.16178 39.5749C6.26272 35.7254 4.29334 31.8928 2.4646 27.9754C1.62057 26.2797 0.934803 24.3295 0.266615 22.4471C-0.0224747 21.9002 -0.0789272 21.2662 0.109277 20.6797C0.297482 20.0933 0.715495 19.6007 1.2744 19.3069C1.83331 19.0131 2.489 18.9413 3.10204 19.1065C3.71508 19.2717 4.23711 19.6611 4.55708 20.1917C5.5406 21.4522 6.41122 22.7911 7.15951 24.1939C9.05857 27.5855 10.8697 30.977 12.6984 34.2669C12.8049 34.4487 12.9223 34.6242 13.0501 34.7926C14.4265 34.2345 15.7211 33.5047 16.901 32.622Z" fill="#8D99AE"/>
<path d="M36.5362 31.4388C32.1931 36.3396 24.9133 35.1017 21.2559 28.7933C18.6534 24.3164 18.1962 16.9226 23.8583 12.2592C25.0674 11.2828 26.5132 10.6177 28.0608 10.3259C29.9584 10.0636 31.8934 10.3864 33.5893 11.2484C35.2851 12.1103 36.6551 13.4672 37.5035 15.1251C40.5982 20.5517 40.1586 27.4705 36.5362 31.4388ZM34.7779 20.009C34.3164 18.6755 33.3908 17.537 32.1578 16.7869C31.4602 16.3073 30.6124 16.0742 29.7574 16.1267C28.9022 16.1792 28.0921 16.5142 27.463 17.0752C24.9485 19.2289 24.4209 24.3334 26.2496 27.3689C26.4828 27.8639 26.825 28.3037 27.2528 28.6577C27.6806 29.0118 28.1835 29.2714 28.7262 29.4183C29.2688 29.5654 29.8382 29.5962 30.3946 29.5088C30.951 29.4212 31.4807 29.2176 31.947 28.912C33.31 27.8928 34.3099 26.4895 34.8078 24.897C35.3058 23.3044 35.2769 21.6019 34.7252 20.026L34.7779 20.009Z" fill="#8D99AE"/>
<path d="M54.2607 22.1457C53.8161 22.238 53.3567 22.2435 52.9097 22.1619C52.4629 22.0803 52.0373 21.9135 51.6584 21.671C51.3267 21.488 51.0412 21.2365 50.8224 20.9344C50.6037 20.6323 50.4571 20.2873 50.3933 19.9239C50.3293 19.5607 50.3497 19.1884 50.4528 18.8336C50.5561 18.4788 50.7397 18.1505 50.9902 17.8723C51.4267 17.3132 52.0463 16.9129 52.7486 16.7361C54.582 16.223 56.4694 15.9101 58.3754 15.8035C58.7942 15.7565 59.2185 15.7907 59.6233 15.904C60.0282 16.0175 60.4054 16.2076 60.7331 16.4636C61.0606 16.7194 61.3319 17.0359 61.531 17.3943C61.73 17.7527 61.8528 18.1459 61.8922 18.5507C62.4416 20.5391 62.5018 22.6239 62.0679 24.6387C60.4855 31.1505 55.0344 33.3889 48.9152 31.3031C47.1975 30.7455 45.6915 29.7063 44.5896 28.3185C43.12 26.6473 42.078 24.6666 41.5475 22.5359C41.1178 20.6384 41.1649 18.6695 41.685 16.7933C42.2049 14.9171 43.1828 13.188 44.5368 11.7505C45.8218 10.188 47.4897 8.95842 49.39 8.17231C50.5909 7.53398 51.9961 7.35248 53.3288 7.66357C53.6312 7.74426 53.9056 7.9015 54.1237 8.11897C54.3418 8.33645 54.4956 8.60623 54.5692 8.90035C54.6428 9.19446 54.6333 9.5022 54.542 9.79165C54.4506 10.0811 54.2807 10.3417 54.0498 10.5464C53.6107 10.9298 53.1336 11.2706 52.6254 11.5639C51.0622 12.524 49.7018 13.7612 48.6163 15.2099C47.9048 16.1473 47.4147 17.2239 47.1809 18.3635C46.9468 19.5031 46.9747 20.6784 47.2624 21.8067C47.6612 23.345 48.5461 24.7258 49.7944 25.7578C53.6629 29.1495 58.6919 25.8765 57.8127 21.247C56.5291 21.5523 55.4037 21.8745 54.2607 22.1457Z" fill="#8D99AE"/>
<path d="M77.8937 31.7101C72.179 35.1018 65.673 31.7101 64.2486 24.5878C63.2112 19.5003 65.1806 12.3779 72.0736 9.6646C73.5401 9.09972 75.1308 8.9014 76.6981 9.08801C78.5811 9.42045 80.3085 10.3145 81.6365 11.644C82.9646 12.9736 83.8267 14.6715 84.1008 16.4987C85.2614 22.5527 82.6238 29.0138 77.8937 31.7101ZM79.8808 20.2973C79.8791 18.8886 79.3623 17.5254 78.4214 16.4478C77.9184 15.7814 77.1912 15.3038 76.3639 15.0966C75.5365 14.8894 74.6604 14.9654 73.8846 15.3117C70.7899 16.6004 68.6094 21.2808 69.4007 24.7235C69.4612 25.2637 69.6432 25.7847 69.9341 26.25C70.2251 26.7153 70.6179 27.1137 71.0852 27.4174C71.5524 27.721 72.0828 27.9226 72.6392 28.008C73.1958 28.0932 73.7648 28.0603 74.3066 27.9115C75.9425 27.3604 77.3589 26.3304 78.3581 24.9654C79.3575 23.6003 79.8898 21.9683 79.8808 20.2973Z" fill="#8D99AE"/>
<path d="M89.8801 33.1347C89.7938 33.7554 89.4555 34.3176 88.9394 34.6976C88.4232 35.0776 87.7717 35.2444 87.1282 35.1612C86.4847 35.078 85.9017 34.7516 85.5077 34.2538C85.1135 33.7562 84.9407 33.1279 85.027 32.5072C85.1132 31.8866 85.4517 31.3244 85.9676 30.9443C86.4838 30.5642 87.1353 30.3976 87.7788 30.4808C88.4224 30.564 89.0053 30.8902 89.3995 31.388C89.7935 31.8857 89.9665 32.5141 89.8801 33.1347ZM88.3502 10.2582C88.6847 9.76558 89.1753 9.39047 89.749 9.18877C90.3225 8.98706 90.9483 8.96958 91.533 9.13893C92.1274 9.28237 92.6526 9.61838 93.0208 10.0907C93.3888 10.5631 93.5775 11.143 93.5552 11.7335C93.4776 12.6807 93.3307 13.6214 93.1156 14.5485C92.5353 17.6858 91.9726 20.823 91.3572 23.9264C91.0759 25.1644 90.7066 26.3514 90.3021 27.6063C90.1614 27.9986 89.9264 28.353 89.6164 28.6408C89.4236 28.8572 89.1775 29.0232 88.9006 29.1234C88.6237 29.2237 88.325 29.255 88.0323 29.2144C87.7396 29.1738 87.4621 29.0627 87.2257 28.8914C86.9893 28.7199 86.8016 28.4937 86.6799 28.2338C86.4708 27.7674 86.3573 27.2664 86.3458 26.7584C86.3458 24.6556 86.3458 22.5359 86.4864 20.416C86.7255 17.3909 87.1956 14.3868 87.8931 11.4283C87.9752 11.0319 88.1299 10.6529 88.3502 10.309V10.2582Z" fill="#8D99AE"/>
<path fill-rule="evenodd" clip-rule="evenodd" d="M9.47186 46.7619C9.26424 47.2089 9.20731 47.7072 9.30876 48.1868C9.37626 48.8189 9.5245 49.4407 9.75013 50.038C10.0318 50.7693 10.347 51.4925 10.7357 52.3839C10.8251 52.589 10.9185 52.8031 11.0162 53.0284C11.5403 54.2359 12.198 55.7792 13.0752 58.0127C13.3234 58.6471 13.5439 59.2868 13.7659 59.9309C13.8556 60.1911 13.9456 60.4522 14.0378 60.7139C14.368 61.6442 14.9363 62.48 15.6896 63.1424C16.0094 63.5065 16.4337 63.7718 16.9094 63.9044C17.3944 64.0397 17.9103 64.0311 18.3901 63.8799C18.87 63.7284 19.2914 63.4413 19.5998 63.0557C19.9021 62.6777 20.0818 62.2221 20.1168 61.7462C20.3129 60.8191 20.246 59.8578 19.9227 58.9639C19.4097 57.4799 18.8253 55.9936 18.1514 54.5399L18.1483 54.5335C17.0396 52.2592 15.9127 50.0006 14.7324 47.7411L14.7236 47.7252C14.3781 47.1366 13.9291 46.6103 13.3967 46.1702C13.0511 45.7773 12.5744 45.5123 12.048 45.421C11.5103 45.3277 10.9558 45.4217 10.4834 45.6863C10.0365 45.9324 9.68225 46.309 9.47186 46.7619Z" fill="#8D99AE"/>
<path fill-rule="evenodd" clip-rule="evenodd" d="M26.4047 41.1617C24.6664 40.7275 22.851 40.6642 21.0849 40.9764C19.717 41.1062 18.3717 41.4105 17.4375 42.0133C16.9624 42.3201 16.5782 42.7139 16.3645 43.2146C16.1497 43.718 16.1223 44.2937 16.2983 44.9352C16.6198 46.1102 17.0373 47.2526 17.4533 48.3913L17.5207 48.5758L17.5223 48.5798C18.7749 51.8881 20.0394 55.1851 21.3154 58.4708C21.4642 58.9886 21.6746 59.4881 21.9424 59.9592L21.9474 59.9679C22.3012 60.5532 22.755 61.0767 23.2895 61.5164C23.5569 61.7582 23.8875 61.9254 24.246 62.0002C24.608 62.0756 24.9845 62.0537 25.3344 61.9368C25.6845 61.82 25.9945 61.6127 26.2307 61.3375C26.4631 61.0668 26.6153 60.7407 26.6712 60.3937C26.9018 59.4508 26.828 58.4625 26.4593 57.5612C26.3443 57.258 26.254 56.948 26.1589 56.6217C26.1272 56.5129 26.0951 56.4022 26.0611 56.2895C28.982 55.1884 32.0898 53.7078 33.1827 50.2635C33.6106 49.0732 33.6463 47.7843 33.2847 46.5736C32.9228 45.3615 32.1804 44.2872 31.1596 43.4985C29.7703 42.3945 28.1475 41.5969 26.4047 41.1617ZM21.5863 45.3864C21.6438 45.3704 21.7018 45.3555 21.7599 45.3417C23.6614 45.0534 25.6069 45.4376 27.2382 46.4232C27.9571 46.9054 28.2516 47.4411 28.3022 47.9566C28.3544 48.4873 28.1543 49.0625 27.7523 49.6153C26.9927 50.6597 25.6065 51.4956 24.3544 51.6514C23.4416 49.6241 22.5146 47.5147 21.5863 45.3864Z" fill="#8D99AE"/>
<path d="M37.9939 37.4507C40.0641 36.5286 42.6283 36.3694 44.6349 37.0177C45.1403 37.1596 45.5787 37.4667 45.8752 37.8863C46.1699 38.3033 46.3058 38.8059 46.2604 39.3083C46.2575 39.6344 46.1744 39.9553 46.0183 40.2447C45.8593 40.5394 45.6291 40.7928 45.3472 40.9836C45.0652 41.1743 44.7397 41.2969 44.3984 41.3407C44.0568 41.3846 43.7096 41.3486 43.3856 41.2356L43.3609 41.227L43.3378 41.2152C43.172 41.1316 42.996 41.0686 42.8138 41.0276L42.8023 41.0251C41.3908 40.6635 40.0593 41.2626 39.573 41.9988C39.341 42.3497 39.3123 42.7041 39.5055 43.0264C39.7124 43.3716 40.2198 43.7589 41.2466 44.035C41.529 44.1097 41.8185 44.1819 42.1121 44.2552C42.924 44.458 43.7678 44.6686 44.5837 44.9605L44.5868 44.9617C48.351 46.3429 49.7527 49.2036 49.2728 51.8942C48.7981 54.555 46.494 56.9765 43.029 57.5477C41.7682 57.8172 40.456 57.7647 39.2225 57.3954C37.9858 57.0249 36.8711 56.349 35.9891 55.4344L35.9661 55.4105C35.6877 55.066 35.5004 54.6611 35.4174 54.2316C35.341 53.844 35.3813 53.4434 35.5332 53.077C35.6842 52.7128 35.9396 52.3976 36.2692 52.1679C36.6173 51.9075 37.037 51.7513 37.4763 51.7187C37.9142 51.6863 38.3523 51.7781 38.7367 51.9826C39.1207 52.1615 39.4779 52.3897 39.7985 52.6611L39.8045 52.6661C40.3717 53.1663 41.0578 53.2966 41.7158 53.1759C42.3834 53.0534 43.0112 52.6725 43.4149 52.167C43.816 51.6648 43.9771 51.0681 43.7859 50.4889C43.5936 49.9055 43.0154 49.2518 41.745 48.7054C41.4129 48.5694 41.0686 48.4597 40.7104 48.3529C40.6138 48.3241 40.5156 48.2955 40.4162 48.2664C40.1514 48.1889 39.8788 48.109 39.6116 48.021C39.4276 47.9605 39.245 47.9032 39.0642 47.8463C38.5701 47.6911 38.0883 47.5398 37.6247 47.3369C36.6156 47.0056 35.7438 46.3694 35.139 45.5224C34.5317 44.6721 34.2262 43.6552 34.2678 42.6236C34.271 40.1097 35.9128 38.3778 37.9939 37.4507Z" fill="#8D99AE"/>
<path d="M64.2388 37.1828C63.8374 36.9937 63.3935 36.904 62.9473 36.9216C62.5009 36.9393 62.0662 37.0639 61.6823 37.2842C61.3008 37.503 60.9814 37.8093 60.7526 38.176C60.5427 38.4848 60.3975 38.8301 60.3251 39.1927C60.2527 39.5551 60.2544 39.9274 60.3301 40.2889C60.4048 40.7535 60.4877 41.2052 60.5696 41.6508C60.7051 42.3881 60.8369 43.1088 60.9239 43.8436L60.9272 43.8623C61.1252 45.0147 61.2289 46.1802 61.2382 47.3482L61.2391 47.3648C61.3067 48.6262 60.8611 49.863 59.9977 50.8128L59.984 50.8297C59.7031 51.1769 59.3275 51.4419 58.8991 51.5951C58.4708 51.7482 58.0069 51.7834 57.5591 51.6967C57.1112 51.61 56.6973 51.4049 56.3634 51.1043C56.0295 50.8036 55.7887 50.4182 55.6685 49.9933C55.412 49.0977 55.2635 48.1766 55.2257 47.2483L55.664 40.5191C55.6705 40.4313 55.6778 40.3411 55.6854 40.25C55.702 40.0457 55.7191 39.8375 55.7262 39.6433C55.7365 39.3577 55.7277 39.0639 55.6587 38.7857C55.588 38.5015 55.4537 38.2311 55.2154 38.0009C54.9794 37.7729 54.6609 37.6048 54.2601 37.4903C53.5353 37.288 52.9224 37.2944 52.4118 37.5034C51.9008 37.7124 51.5507 38.1005 51.303 38.5488C51.0572 38.9933 50.8992 39.5196 50.7798 40.0467C50.6911 40.4378 50.6199 40.8484 50.5522 41.2393C50.5288 41.374 50.5059 41.5062 50.4828 41.6346L50.4822 41.6384C50.12 43.7818 50.0122 45.9581 50.1609 48.1251C50.1886 49.2961 50.4418 50.4521 50.9078 51.5338C51.4335 52.9296 52.3857 54.1389 53.6387 55.0022C54.8944 55.8672 56.3927 56.3439 57.9355 56.369C59.4783 56.3942 60.9926 55.9667 62.278 55.1433C63.5612 54.321 64.5557 53.1425 65.1299 51.7638C65.9332 50.0074 66.3104 48.0973 66.2325 46.1791C66.1853 44.7786 66.1063 43.3674 66.0277 41.9633C65.9891 41.2746 65.9506 40.5873 65.9161 39.9043C65.8987 39.2193 65.6645 38.5559 65.2448 38.0031C64.9851 37.6535 64.6395 37.3716 64.2388 37.1828Z" fill="#8D99AE"/>
<path d="M78.4458 47.7342C78.4051 47.7841 78.3622 47.8357 78.3174 47.8894C77.9909 46.073 77.6883 44.2571 77.3852 42.4385C77.2766 41.786 77.1673 41.1307 77.0574 40.4773L77.045 40.4045L77.0049 40.3415C76.9293 40.2229 76.9218 40.1067 76.9218 39.8589V39.8302L76.9172 39.8018C76.8352 39.29 76.5951 38.8136 76.2284 38.4352C75.8627 38.0577 75.3877 37.795 74.8652 37.681C74.3436 37.5569 73.7955 37.5842 73.2898 37.7597C72.7855 37.9346 72.3459 38.2491 72.0259 38.6637C71.7599 38.9818 71.5418 39.3346 71.3784 39.7117C71.0075 40.5239 70.6334 41.3381 70.2582 42.1546L70.2517 42.1687C69.3152 44.2069 68.3723 46.2589 67.4568 48.3269L67.454 48.3336C66.892 49.6746 66.4281 51.0875 65.9658 52.4961C65.8735 52.7773 65.7812 53.0583 65.6881 53.3386C65.5212 53.7831 65.4482 54.2552 65.4733 54.7272C65.4429 55.1498 65.5477 55.5713 65.774 55.9348C66.0046 56.3057 66.3501 56.5975 66.7617 56.7693C67.1979 56.9537 67.6856 56.9928 68.1476 56.8805C68.6085 56.7684 69.0179 56.5118 69.3112 56.1511C69.6858 55.7067 70.008 55.2221 70.2708 54.7086C71.0463 53.1787 71.7874 51.6302 72.5252 50.0884C72.8107 49.492 73.0881 48.9579 73.4037 48.3762C73.4254 48.448 73.4475 48.5179 73.4703 48.588C73.8011 49.9924 74.3594 51.3376 75.1246 52.5742C75.2694 52.8362 75.4711 53.0651 75.7159 53.2453C75.9637 53.4277 76.2496 53.5557 76.5538 53.6208C76.8581 53.6858 77.1733 53.6861 77.4777 53.6216C77.7816 53.5573 78.0684 53.4292 78.3163 53.2477L78.807 52.8935L82.615 49.8001L82.3898 51.1841C82.0807 53.0865 81.774 54.973 81.4481 56.86C81.2348 57.6964 81.2351 58.57 81.4489 59.4061C81.5416 59.8766 81.7775 60.3098 82.1267 60.6504C82.4788 60.9938 82.9298 61.2272 83.4211 61.3202C83.9125 61.4132 84.4216 61.3617 84.8821 61.1722C85.336 60.9856 85.7221 60.6734 85.9919 60.2756C86.6198 59.5243 87.0106 58.6148 87.118 57.6552C87.2796 56.3002 87.4621 54.9266 87.6449 53.5536C87.8553 51.9709 88.0657 50.3886 88.2434 48.8368L88.244 48.832C88.4151 47.1332 88.4978 45.4274 88.492 43.7207C88.5295 43.1813 88.3903 42.644 88.0936 42.1848C87.7959 41.724 87.3549 41.3658 86.8338 41.1608C86.2917 40.9232 85.6849 40.8596 85.1025 40.9797C84.524 41.099 84.0004 41.3931 83.6075 41.8192C82.9052 42.4456 82.2463 43.116 81.635 43.826L81.6309 43.8308C80.9636 44.6327 80.3009 45.4503 79.6425 46.2626C79.2421 46.7565 78.8429 47.2491 78.4458 47.7342Z" fill="#8D99AE"/>
</g>
<defs>
<clipPath id="clip0_243_78">
<rect width="103.226" height="64" fill="white"/>
</clipPath>
</defs>
</svg>
