<svg width="124" height="32" viewBox="0 0 124 32" fill="none" xmlns="http://www.w3.org/2000/svg">
<path d="M3.06445 28.9941H29.7922V2.26636H3.06445V28.9941ZM24.6478 13.0585H19V7.41079H24.6478V13.0585ZM8.20785 7.41079H13.8587V18.2019H24.6478V23.8497H8.20785V7.41079ZM47.197 2.26636C44.5538 2.26636 41.97 3.05014 39.7724 4.51858C37.5747 5.98702 35.8618 8.07417 34.8504 10.5161C33.8389 12.9581 33.5743 15.645 34.0899 18.2374C34.6056 20.8297 35.8783 23.2109 37.7473 25.0799C39.6162 26.9489 41.9975 28.2216 44.5898 28.7373C47.1822 29.2529 49.8692 28.9884 52.3111 27.9769C54.7531 26.9654 56.8401 25.2525 58.3087 23.0548C59.7771 20.8571 60.5609 18.2733 60.5609 15.6302C60.5567 12.0872 59.1474 8.69043 56.6421 6.18512C54.1367 3.6798 50.7401 2.27049 47.197 2.26636ZM47.197 23.8497C45.5714 23.8497 43.9822 23.3676 42.6305 22.4644C41.2789 21.5613 40.2253 20.2776 39.6032 18.7757C38.9811 17.2738 38.8184 15.6212 39.1354 14.0267C39.4526 12.4323 40.2355 10.9677 41.385 9.81821C42.5345 8.66871 43.9991 7.88588 45.5935 7.56873C47.1878 7.25159 48.8405 7.41436 50.3424 8.03646C51.8443 8.65857 53.1281 9.71208 54.0312 11.0638C54.9344 12.4154 55.4164 14.0046 55.4164 15.6302C55.4131 17.8092 54.546 19.8979 53.0053 21.4386C51.4646 22.9794 49.3759 23.8463 47.197 23.8497ZM108.383 2.26636C105.74 2.26616 103.156 3.04976 100.958 4.51807C98.7605 5.98639 97.0475 8.07347 96.0358 10.5154C95.0242 12.9572 94.7593 15.6444 95.2749 18.2367C95.7904 20.8292 97.0631 23.2105 98.9321 25.0795C100.801 26.9486 103.182 28.2215 105.775 28.7372C108.367 29.2529 111.054 28.9884 113.496 27.977C115.938 26.9655 118.025 25.2526 119.493 23.0549C120.962 20.8572 121.746 18.2734 121.746 15.6302C121.742 12.0874 120.333 8.69077 117.828 6.18549C115.323 3.6802 111.926 2.27078 108.383 2.26636ZM108.383 23.8497C106.758 23.8499 105.169 23.3679 103.816 22.4649C102.465 21.5619 101.411 20.2782 100.789 18.7764C100.166 17.2745 100.003 15.6218 100.32 14.0273C100.638 12.4329 101.42 10.9682 102.57 9.81858C103.719 8.66897 105.184 7.88604 106.778 7.56881C108.373 7.25157 110.025 7.41429 111.527 8.03637C113.03 8.65844 114.313 9.71194 115.217 11.0637C116.119 12.4154 116.602 14.0046 116.602 15.6302C116.598 17.809 115.731 19.8975 114.19 21.4382C112.65 22.9789 110.562 23.8461 108.383 23.8497ZM77.7896 2.26636C75.1464 2.26636 72.5626 3.05014 70.365 4.51858C68.1673 5.98702 66.4544 8.07417 65.4429 10.5161C64.4314 12.9581 64.1669 15.645 64.6825 18.2374C65.1982 20.8297 66.4709 23.2109 68.3398 25.0799C70.2088 26.9489 72.59 28.2216 75.1824 28.7373C77.7747 29.2529 80.4617 28.9884 82.9037 27.9769C85.3457 26.9654 87.4327 25.2525 88.9012 23.0548C90.3696 20.8571 91.1534 18.2733 91.1534 15.6302C91.1493 12.0872 89.74 8.69043 87.2346 6.18512C84.7293 3.6798 81.3326 2.27049 77.7896 2.26636ZM77.7896 23.8497C76.2749 23.8504 74.7896 23.4326 73.4974 22.6425C72.2053 21.8523 71.1565 20.7206 70.467 19.372C69.7776 18.0234 69.4741 16.5105 69.5902 15.0004C69.7062 13.4902 70.2372 12.0415 71.1247 10.8141C72.0122 9.5868 73.2216 8.62851 74.6192 8.04508C76.017 7.46165 77.5488 7.27577 79.0454 7.50795C80.5422 7.74015 81.9456 8.38136 83.1008 9.36085C84.2561 10.3403 85.1183 11.62 85.5922 13.0585H77.7896V18.2019H85.5922C85.0494 19.8434 84.0036 21.2724 82.6031 22.2861C81.2026 23.2999 79.5185 23.8468 77.7896 23.8497Z" fill="#8D99AE"/>
</svg>
