<svg width="108" height="56" viewBox="0 0 108 56" fill="none" xmlns="http://www.w3.org/2000/svg">
<path d="M2.79199 31.8778H5.85155V46.8798H2.79199V31.8778Z" fill="#8D99AE"/>
<path d="M7.62598 41.7398C7.62396 40.6623 7.94164 39.6083 8.53883 38.7114C9.13601 37.8144 9.98585 37.1148 10.9808 36.701C11.9757 36.2873 13.071 36.178 14.1282 36.387C15.1853 36.596 16.1566 37.1138 16.9192 37.8751C17.6819 38.6363 18.2016 39.6067 18.4125 40.6633C18.6235 41.72 18.5163 42.8156 18.1044 43.8113C17.6925 44.807 16.9945 45.6581 16.0986 46.257C15.2029 46.856 14.1495 47.1755 13.072 47.1755C12.3553 47.1837 11.6444 47.0488 10.9806 46.7786C10.3169 46.5085 9.71368 46.1086 9.20647 45.6023C8.69926 45.0961 8.2982 44.4937 8.02681 43.8303C7.75542 43.1671 7.61914 42.4564 7.62598 41.7398ZM15.438 41.7398C15.426 41.2746 15.2771 40.8233 15.0099 40.4424C14.7427 40.0614 14.3691 39.7677 13.9358 39.5979C13.5025 39.4281 13.0288 39.39 12.574 39.4881C12.1191 39.5862 11.7033 39.8162 11.3785 40.1494C11.0537 40.4826 10.8344 40.9042 10.7479 41.3615C10.6614 41.8186 10.7118 42.2912 10.8925 42.72C11.0733 43.1487 11.3764 43.5148 11.764 43.7721C12.1518 44.0295 12.6066 44.1669 13.072 44.167C13.3903 44.1759 13.7071 44.1188 14.0022 43.9991C14.2974 43.8795 14.5646 43.7 14.787 43.4719C15.0092 43.2438 15.1819 42.9722 15.2939 42.6741C15.406 42.3759 15.455 42.0578 15.438 41.7398Z" fill="#8D99AE"/>
<path d="M30.8174 36.5997V46.3698C30.8174 49.8271 28.1148 51.2855 25.3817 51.2855C24.4206 51.357 23.4583 51.1626 22.6002 50.7237C21.7422 50.2848 21.0215 49.6182 20.517 48.7971L23.1482 47.2775C23.357 47.6983 23.6874 48.0468 24.0965 48.2777C24.5056 48.5086 24.9746 48.6114 25.4429 48.5727C25.7509 48.6241 26.0667 48.604 26.3659 48.5139C26.665 48.4239 26.9395 48.2665 27.1681 48.0536C27.3966 47.8407 27.5733 47.5782 27.6844 47.2863C27.7956 46.9944 27.8381 46.6808 27.8089 46.3698V45.4213C27.4492 45.8639 26.9902 46.2155 26.4693 46.4475C25.9484 46.6796 25.3802 46.7858 24.8106 46.7574C23.4257 46.7574 22.0976 46.2072 21.1183 45.228C20.139 44.2488 19.5889 42.9206 19.5889 41.5357C19.5889 40.1508 20.139 38.8227 21.1183 37.8435C22.0976 36.8643 23.4257 36.3141 24.8106 36.3141C25.3798 36.2881 25.9473 36.3953 26.4678 36.6272C26.9884 36.8592 27.4476 37.2094 27.8089 37.6501V36.6302L30.8174 36.5997ZM27.8089 41.5357C27.8293 41.0398 27.7007 40.549 27.44 40.1265C27.1792 39.7041 26.7981 39.3693 26.3456 39.1653C25.893 38.9612 25.3898 38.8972 24.9005 38.9814C24.4113 39.0655 23.9584 39.2942 23.6002 39.6377C23.2419 39.9814 22.9945 40.4243 22.89 40.9095C22.7853 41.3948 22.8283 41.9003 23.0133 42.3609C23.1983 42.8217 23.5168 43.2164 23.928 43.4946C24.3391 43.7729 24.8241 43.9218 25.3204 43.9222C25.6445 43.9451 25.9697 43.8999 26.2751 43.7895C26.5807 43.679 26.8596 43.5058 27.0941 43.281C27.3285 43.0561 27.5133 42.7846 27.6364 42.4841C27.7595 42.1835 27.8183 41.8605 27.8089 41.5357Z" fill="#8D99AE"/>
<path d="M32.5818 41.7398C32.5797 40.6623 32.8975 39.6083 33.4946 38.7114C34.0918 37.8144 34.9417 37.1148 35.9366 36.701C36.9315 36.2873 38.0268 36.178 39.0839 36.387C40.141 36.596 41.1124 37.1138 41.8751 37.8751C42.6377 38.6363 43.1574 39.6067 43.3684 40.6633C43.5793 41.72 43.4721 42.8156 43.0602 43.8113C42.6483 44.807 41.9503 45.6581 41.0545 46.257C40.1586 46.856 39.1053 47.1755 38.0278 47.1755C37.3112 47.1837 36.6001 47.0488 35.9364 46.7786C35.2726 46.5085 34.6694 46.1086 34.1623 45.6023C33.6551 45.0961 33.254 44.4937 32.9826 43.8303C32.7112 43.1671 32.5749 42.4564 32.5818 41.7398ZM40.3939 41.7398C40.3818 41.2746 40.2328 40.8233 39.9656 40.4424C39.6985 40.0614 39.3249 39.7677 38.8916 39.5979C38.4584 39.4281 37.9847 39.39 37.5298 39.4881C37.0749 39.5862 36.6591 39.8162 36.3343 40.1494C36.0095 40.4826 35.7901 40.9042 35.7036 41.3615C35.6172 41.8186 35.6676 42.2912 35.8483 42.72C36.029 43.1487 36.3322 43.5148 36.7198 43.7721C37.1075 44.0295 37.5624 44.1669 38.0278 44.167C38.3445 44.173 38.659 44.1138 38.9517 43.9929C39.2444 43.8719 39.5091 43.692 39.7292 43.4642C39.9493 43.2366 40.1201 42.9658 40.231 42.6691C40.3418 42.3724 40.3903 42.056 40.3735 41.7398H40.3939Z" fill="#8D99AE"/>
<path d="M44.8914 33.8461C44.8914 33.479 45.0002 33.1201 45.2041 32.8149C45.4081 32.5097 45.698 32.2718 46.0371 32.1313C46.3764 31.9908 46.7495 31.9541 47.1096 32.0257C47.4696 32.0973 47.8003 32.2741 48.06 32.5336C48.3196 32.7932 48.4963 33.1239 48.5679 33.484C48.6396 33.8441 48.6028 34.2173 48.4624 34.5564C48.3219 34.8955 48.0839 35.1855 47.7787 35.3894C47.4734 35.5933 47.1146 35.7022 46.7474 35.7022C46.256 35.6996 45.7855 35.5031 45.4379 35.1556C45.0904 34.8082 44.8941 34.3376 44.8914 33.8461ZM45.2075 36.5997H48.267V46.8798H45.2075V36.5997Z" fill="#8D99AE"/>
<path d="M61.6066 41.7398C61.6436 42.4193 61.546 43.0995 61.3192 43.7411C61.0923 44.3827 60.7408 44.9732 60.2849 45.4784C59.8289 45.9836 59.2775 46.3937 58.6625 46.685C58.0474 46.9763 57.3808 47.143 56.7011 47.1756C56.1304 47.2029 55.5606 47.1049 55.0321 46.8881C54.5034 46.6714 54.0287 46.3413 53.6416 45.9212V51.0204H50.582V36.5997H53.6416V37.5686C54.0287 37.1485 54.5034 36.8184 55.0321 36.6017C55.5606 36.3849 56.1304 36.2868 56.7011 36.3142C57.38 36.3468 58.0457 36.5132 58.66 36.8038C59.2744 37.0946 59.8253 37.5037 60.2811 38.0078C60.7369 38.512 61.0886 39.1011 61.316 39.7415C61.5436 40.382 61.6423 41.0611 61.6066 41.7398ZM58.547 41.7398C58.5349 41.2611 58.3827 40.7965 58.1091 40.4035C57.8355 40.0106 57.4528 39.7063 57.0081 39.5288C56.5635 39.3511 56.0764 39.3078 55.6075 39.4043C55.1384 39.5006 54.708 39.7325 54.3694 40.0711C54.0308 40.4096 53.799 40.84 53.7026 41.3091C53.6062 41.7781 53.6496 42.2651 53.8271 42.7097C54.0048 43.1543 54.3089 43.5372 54.7019 43.8107C55.0949 44.0842 55.5595 44.2365 56.0382 44.2486C56.3722 44.2699 56.7069 44.2193 57.0199 44.1005C57.3328 43.9816 57.6166 43.7972 57.8524 43.5596C58.088 43.3219 58.2702 43.0365 58.3865 42.7227C58.5027 42.4088 58.5506 42.0737 58.5266 41.7398H58.547Z" fill="#8D99AE"/>
<path d="M71.1322 43.7999C71.1322 46.166 69.0925 47.1755 66.8488 47.1755C65.9525 47.2549 65.0529 47.0642 64.2659 46.628C63.4791 46.1918 62.8406 45.53 62.4329 44.7279L65.1049 43.2084C65.2133 43.5794 65.4455 43.9021 65.7627 44.1228C66.08 44.3436 66.4632 44.4492 66.8488 44.422C67.5933 44.422 67.9604 44.1874 67.9604 43.7795C67.9604 42.6474 62.8612 43.2492 62.8612 39.7001C62.8612 37.4564 64.7581 36.3243 66.9406 36.3243C67.7459 36.2999 68.5432 36.4912 69.2497 36.8786C69.9563 37.2659 70.5463 37.8352 70.9588 38.5272L68.2766 39.9347C68.1582 39.6653 67.964 39.4361 67.7177 39.275C67.4715 39.1139 67.1839 39.0277 66.8896 39.0269C66.3593 39.0269 66.0329 39.2309 66.0329 39.6083C66.0738 40.7811 71.1322 39.9958 71.1322 43.7999Z" fill="#8D99AE"/>
<path d="M82.3912 36.5997V46.8798H79.3315V45.9212C78.9757 46.3472 78.524 46.6828 78.0135 46.9009C77.5031 47.1189 76.9482 47.213 76.3944 47.1756C74.3547 47.1756 72.5496 45.6968 72.5496 42.9127V36.5997H75.6091V42.4639C75.5822 42.7138 75.6114 42.9666 75.6943 43.2038C75.7773 43.4411 75.9119 43.6569 76.0887 43.8356C76.2654 44.0144 76.4798 44.1514 76.7161 44.237C76.9524 44.3226 77.2049 44.3543 77.455 44.3303C78.5769 44.3303 79.3622 43.6775 79.3622 42.2192V36.5997H82.3912Z" fill="#8D99AE"/>
<path d="M100.075 40.577V46.8797H97.0157V40.8422C97.0157 39.8224 96.5159 39.1492 95.5369 39.1492C94.5579 39.1492 93.9256 39.8734 93.9256 41.087V46.8797H90.866V40.8422C90.866 39.8224 90.3765 39.1492 89.3872 39.1492C88.398 39.1492 87.7861 39.8734 87.7861 41.087V46.8797H84.7266V36.5997H87.7861V37.5481C88.1059 37.1292 88.5252 36.7969 89.0062 36.5814C89.4871 36.3659 90.0142 36.2739 90.5397 36.3141C91.0674 36.2884 91.5928 36.4 92.0645 36.6376C92.5364 36.8753 92.9386 37.2312 93.2321 37.6705C93.5734 37.2112 94.0256 36.8458 94.5464 36.6086C95.0671 36.3715 95.6395 36.2701 96.21 36.3141C98.5353 36.3141 100.075 38.007 100.075 40.577Z" fill="#8D99AE"/>
<path d="M102.686 36.5385C103.948 36.5385 104.971 35.5157 104.971 34.254C104.971 32.9924 103.948 31.9696 102.686 31.9696C101.424 31.9696 100.402 32.9924 100.402 34.254C100.402 35.5157 101.424 36.5385 102.686 36.5385Z" fill="#8D99AE"/>
<path d="M37.4158 24.0964C43.3243 24.0964 48.1139 19.3066 48.1139 13.3981C48.1139 7.48971 43.3243 2.69995 37.4158 2.69995C31.5073 2.69995 26.7175 7.48971 26.7175 13.3981C26.7175 19.3066 31.5073 24.0964 37.4158 24.0964Z" fill="#8D99AE"/>
<path d="M61.3313 24.0964C67.2398 24.0964 72.0295 19.3066 72.0295 13.3981C72.0295 7.48971 67.2398 2.69995 61.3313 2.69995C55.4229 2.69995 50.6331 7.48971 50.6331 13.3981C50.6331 19.3066 55.4229 24.0964 61.3313 24.0964Z" fill="#8D99AE"/>
<path d="M24.1987 2.69995H2.8125V24.0861H24.1987V2.69995Z" fill="#8D99AE"/>
</svg>
