<svg width="140" height="140" viewBox="0 0 140 140" fill="none" xmlns="http://www.w3.org/2000/svg">
    <path d="M69.2582 90.4277C69.6487 90.8182 70.2819 90.8182 70.6724 90.4277L77.0364 84.0638C77.4269 83.6732 77.4269 83.0401 77.0364 82.6495C76.6459 82.259 76.0127 82.259 75.6222 82.6495L69.9653 88.3064L64.3085 82.6495C63.918 82.259 63.2848 82.259 62.8943 82.6495C62.5037 83.0401 62.5037 83.6732 62.8943 84.0638L69.2582 90.4277ZM68.9653 50.3035L68.9653 89.7206L70.9653 89.7206L70.9653 50.3035L68.9653 50.3035Z" fill="white"/>
    <circle cx="69.9652" cy="70.0119" r="52.9799" stroke="#EF233C" stroke-width="32"/>    
    <g>
        <path d="M125.351 84.2546C125.119 85.1239 124.744 85.841 124.229 86.4058C123.711 86.9786 123.088 87.3581 122.361 87.5442C121.639 87.7405 120.863 87.7274 120.033 87.505C119.203 87.2826 118.524 86.906 117.997 86.3751C117.476 85.8543 117.135 85.2165 116.973 84.4616C116.808 83.7146 116.843 82.9064 117.076 82.0371L117.851 79.1448L126.126 81.3622L125.351 84.2546ZM118.502 82.3559C118.27 83.2252 118.327 83.9605 118.674 84.5617C119.021 85.163 119.625 85.579 120.487 85.8099C121.349 86.0407 122.084 85.9837 122.693 85.6387C123.31 85.2958 123.735 84.6898 123.968 83.8205L124.283 82.6469L118.817 81.1824L118.502 82.3559Z" fill="white"/>
        <path d="M112.358 93.6261C112.745 92.9238 113.265 92.3697 113.918 91.9636C114.572 91.5576 115.283 91.3425 116.053 91.3182C116.831 91.298 117.588 91.4911 118.327 91.8977C119.058 92.3004 119.619 92.8336 120.01 93.4973C120.408 94.165 120.611 94.8835 120.617 95.6527C120.623 96.4219 120.432 97.1576 120.045 97.8599C119.654 98.5694 119.134 99.1235 118.485 99.5224C117.831 99.9284 117.118 100.138 116.345 100.151C115.575 100.175 114.824 99.9861 114.093 99.5835C113.355 99.1769 112.786 98.6397 112.388 97.972C111.993 97.3155 111.793 96.6026 111.787 95.8334C111.781 95.0641 111.971 94.3284 112.358 93.6261ZM113.702 94.3663C113.453 94.8178 113.334 95.2707 113.346 95.7252C113.364 96.1837 113.51 96.6143 113.783 97.017C114.056 97.4197 114.444 97.7592 114.946 98.0356C115.447 98.3119 115.938 98.456 116.417 98.4678C116.904 98.4835 117.342 98.3746 117.732 98.1412C118.122 97.9078 118.442 97.5653 118.691 97.1138C118.939 96.6624 119.06 96.2058 119.053 95.7441C119.041 95.2896 118.899 94.861 118.626 94.4583C118.36 94.0595 117.976 93.722 117.474 93.4456C116.972 93.1693 116.478 93.0233 115.992 93.0075C115.505 92.9918 115.063 93.0987 114.666 93.3282C114.272 93.5688 113.95 93.9148 113.702 94.3663Z" fill="white"/>
        <path d="M107.761 113.355L103.086 105.788L104.459 104.299L110.034 107.254L106.69 101.882L108.046 100.394L115.917 104.516L114.668 105.869L108.755 102.468L112.463 108.259L111.165 109.666L105.186 106.389L109.017 111.993L107.761 113.355Z" fill="white"/>
        <path d="M93.7367 112.546L95.1703 111.599L101.658 114.359L98.4162 109.454L99.8498 108.507L104.581 115.664L103.147 116.611L96.6525 113.841L99.9014 118.756L98.4678 119.703L93.7367 112.546Z" fill="white"/>
        <path d="M87.0073 116.959L84.3481 117.906L83.8907 116.623L88.1686 115.099L91.0451 123.168L89.4265 123.744L87.0073 116.959Z" fill="white"/>
        <path d="M74.6182 118.273C75.4161 118.192 76.1677 118.306 76.8732 118.613C77.5787 118.92 78.1601 119.383 78.6176 120.003C79.0758 120.631 79.3473 121.364 79.4321 122.203C79.5161 123.033 79.396 123.798 79.0718 124.496C78.7485 125.203 78.272 125.778 77.6423 126.22C77.0125 126.662 76.2987 126.923 75.5008 127.003C74.6948 127.085 73.9432 126.971 73.2459 126.664C72.5404 126.356 71.9626 125.889 71.5125 125.26C71.055 124.64 70.7843 123.915 70.7004 123.084C70.6156 122.246 70.7349 121.473 71.0582 120.766C71.3742 120.068 71.847 119.498 72.4768 119.057C73.1065 118.615 73.8203 118.354 74.6182 118.273ZM74.7725 119.799C74.2596 119.851 73.8193 120.011 73.4515 120.278C73.0846 120.553 72.813 120.918 72.6368 121.372C72.4606 121.825 72.4013 122.337 72.4589 122.907C72.5165 123.477 72.6767 123.962 72.9393 124.363C73.2027 124.772 73.5413 125.071 73.9552 125.26C74.369 125.448 74.8324 125.517 75.3453 125.465C75.8582 125.413 76.3026 125.253 76.6785 124.985C77.0463 124.717 77.3182 124.357 77.4944 123.903C77.6715 123.458 77.7312 122.95 77.6736 122.38C77.6159 121.811 77.4554 121.321 77.192 120.912C76.9285 120.503 76.5895 120.2 76.1748 120.003C75.7529 119.815 75.2854 119.747 74.7725 119.799Z" fill="white"/>
        <path d="M61.2563 119.472L64.6348 119.951L65.4231 118.415L67.2095 118.668L62.9541 126.729L60.9732 126.447L59.1279 117.521L60.9265 117.777L61.2563 119.472ZM61.525 120.898L62.249 124.62L63.9799 121.247L61.525 120.898Z" fill="white"/>
        <path d="M49.1805 123.219C48.3455 122.883 47.6786 122.425 47.1798 121.845C46.6735 121.262 46.3718 120.598 46.2745 119.853C46.1667 119.113 46.2731 118.345 46.5939 117.548C46.9146 116.751 47.3703 116.123 47.9608 115.664C48.5407 115.209 49.2151 114.947 49.9842 114.877C50.7456 114.805 51.5439 114.936 52.3789 115.272L55.1574 116.39L51.959 124.337L49.1805 123.219ZM51.8906 116.65C51.0555 116.314 50.3186 116.282 49.6798 116.554C49.0411 116.826 48.5552 117.376 48.2222 118.203C47.8892 119.03 47.8573 119.767 48.1265 120.413C48.3925 121.067 48.9431 121.562 49.7782 121.898L50.9055 122.352L53.0179 117.104L51.8906 116.65Z" fill="white"/>
        <path d="M32.3288 107.321C31.6868 107.867 30.9915 108.212 30.2427 108.354C29.4824 108.496 28.7499 108.437 28.0453 108.177C27.3291 107.916 26.7059 107.474 26.1757 106.85C25.5553 106.121 25.1988 105.323 25.1062 104.457C25.0136 103.591 25.2048 102.767 25.6799 101.987L26.9604 103.492C26.776 103.907 26.7226 104.318 26.8 104.724C26.8722 105.125 27.0594 105.503 27.3616 105.858C27.6851 106.238 28.0644 106.501 28.4997 106.646C28.9234 106.791 29.3689 106.809 29.8361 106.702C30.2981 106.588 30.7472 106.346 31.1835 105.975C31.6136 105.609 31.9249 105.205 32.1174 104.762C32.2983 104.318 32.3546 103.873 32.2861 103.426C32.2061 102.979 32.0044 102.565 31.681 102.185C31.3787 101.829 31.0357 101.584 30.6519 101.449C30.2566 101.312 29.8394 101.302 29.4005 101.417L28.1201 99.9121C28.9726 99.563 29.8191 99.5037 30.6596 99.7341C31.4887 99.9636 32.216 100.446 32.8417 101.181C33.3719 101.805 33.7115 102.488 33.8605 103.231C33.998 103.974 33.9389 104.706 33.6832 105.428C33.4223 106.144 32.9708 106.775 32.3288 107.321Z" fill="white"/>
        <path d="M17.0016 91.7905L26.0704 90.7743L27.0028 92.6408L20.7422 99.2785L19.9195 97.6316L24.9608 92.4806L17.8188 93.4264L17.0016 91.7905Z" fill="white"/>
        <path d="M14.6485 55.7454C14.8815 54.8762 15.2558 54.1591 15.7714 53.5942C16.2891 53.0215 16.9118 52.642 17.6395 52.4558C18.3613 52.2596 19.1372 52.2727 19.9671 52.4951C20.7971 52.7175 21.4756 53.0941 22.0026 53.6249C22.5239 54.1457 22.8655 54.7836 23.0275 55.5385C23.1916 56.2855 23.1572 57.0936 22.9243 57.9629L22.1493 60.8553L13.8735 58.6378L14.6485 55.7454ZM21.4975 57.6441C21.7304 56.7749 21.6733 56.0396 21.3261 55.4384C20.9789 54.8371 20.3745 54.4211 19.5129 54.1902C18.6514 53.9594 17.916 54.0164 17.3068 54.3614C16.6897 54.7042 16.2646 55.3103 16.0317 56.1796L15.7173 57.3531L21.1831 58.8177L21.4975 57.6441Z" fill="white"/>
        <path d="M27.6422 46.374C27.2554 47.0762 26.7352 47.6304 26.0818 48.0364C25.4284 48.4425 24.7166 48.6576 23.9465 48.6818C23.1693 48.7021 22.4115 48.5089 21.6732 48.1023C20.9421 47.6997 20.381 47.1665 19.9899 46.5027C19.5916 45.8351 19.3895 45.1166 19.3835 44.3474C19.3774 43.5782 19.5679 42.8424 19.9547 42.1401C20.3455 41.4307 20.8657 40.8765 21.5152 40.4777C22.1686 40.0716 22.8819 39.8621 23.6552 39.849C24.4253 39.8247 25.1759 40.0139 25.907 40.4166C26.6453 40.8232 27.2136 41.3604 27.6119 42.028C28.0069 42.6846 28.2075 43.3975 28.2135 44.1667C28.2195 44.9359 28.0291 45.6717 27.6422 46.374ZM26.2982 45.6338C26.5469 45.1823 26.6657 44.7293 26.6545 44.2748C26.6361 43.8164 26.4902 43.3858 26.2169 42.9831C25.9436 42.5804 25.5561 42.2408 25.0544 41.9645C24.5526 41.6882 24.0621 41.5441 23.5828 41.5323C23.0963 41.5166 22.658 41.6254 22.2678 41.8589C21.8776 42.0923 21.5581 42.4348 21.3094 42.8862C21.0608 43.3377 20.94 43.7943 20.9473 44.256C20.9585 44.7105 21.1008 45.1391 21.3741 45.5418C21.6402 45.9406 22.0242 46.2781 22.5259 46.5544C23.0277 46.8308 23.5218 46.9768 24.0083 46.9925C24.4947 47.0083 24.9367 46.9014 25.334 46.6719C25.7281 46.4313 26.0496 46.0853 26.2982 45.6338Z" fill="white"/>
        <path d="M32.2392 26.645L36.9138 34.2125L35.5406 35.7008L29.9664 32.7464L33.3102 38.1181L31.9544 39.6057L24.0832 35.4844L25.3316 34.1314L31.2453 37.5325L27.537 31.7412L28.8353 30.3341L34.8135 33.6109L30.9825 28.007L32.2392 26.645Z" fill="white"/>
        <path d="M46.2633 27.4537L44.8297 28.4009L38.3417 25.6415L41.5837 30.5458L40.1502 31.4931L35.4191 24.3363L36.8527 23.389L43.3475 26.1587L40.0986 21.2442L41.5322 20.2969L46.2633 27.4537Z" fill="white"/>
        <path d="M52.9926 23.0416L55.6519 22.0941L56.1093 23.3773L51.8314 24.9015L48.9548 16.8323L50.5735 16.2556L52.9926 23.0416Z" fill="white"/>
        <path d="M65.3818 21.7271C64.5839 21.8077 63.8323 21.6944 63.1268 21.3874C62.4213 21.0803 61.8399 20.6169 61.3824 19.997C60.9242 19.3689 60.6526 18.6357 60.5679 17.7973C60.4839 16.967 60.604 16.2024 60.9282 15.5036C61.2515 14.7967 61.728 14.2223 62.3577 13.7804C62.9875 13.3386 63.7013 13.0774 64.4991 12.9968C65.3052 12.9154 66.0568 13.0286 66.7541 13.3365C67.4596 13.6436 68.0374 14.1115 68.4875 14.7404C68.945 15.3603 69.2157 16.0854 69.2996 16.9157C69.3844 17.7541 69.2651 18.5268 68.9418 19.2337C68.6258 19.9317 68.153 20.5016 67.5232 20.9435C66.8935 21.3854 66.1797 21.6466 65.3818 21.7271ZM65.2275 20.2008C65.7404 20.149 66.1807 19.9895 66.5485 19.7221C66.9154 19.4466 67.187 19.082 67.3632 18.6284C67.5394 18.1747 67.5987 17.663 67.5411 17.0932C67.4834 16.5234 67.3233 16.038 67.0607 15.6369C66.7973 15.2276 66.4587 14.9288 66.0448 14.7403C65.631 14.5518 65.1676 14.4835 64.6547 14.5353C64.1418 14.5871 63.6974 14.7471 63.3215 15.0153C62.9537 15.2827 62.6818 15.6432 62.5056 16.0968C62.3285 16.5423 62.2688 17.0499 62.3264 17.6197C62.384 18.1895 62.5446 18.679 62.808 19.0883C63.0714 19.4975 63.4105 19.8004 63.8252 19.997C64.2471 20.1847 64.7146 20.2526 65.2275 20.2008Z" fill="white"/>
        <path d="M78.7437 20.5282L75.3653 20.0487L74.5769 21.5853L72.7905 21.3318L77.0459 13.2715L79.0268 13.5527L80.8721 22.4788L79.0735 22.2235L78.7437 20.5282ZM78.475 19.1018L77.751 15.3796L76.0201 18.7533L78.475 19.1018Z" fill="white"/>
        <path d="M90.8195 16.7813C91.6545 17.1174 92.3214 17.5754 92.8202 18.1553C93.3265 18.7383 93.6282 19.4021 93.7255 20.1467C93.8334 20.8869 93.7269 21.6554 93.4061 22.4523C93.0854 23.2492 92.6298 23.8772 92.0392 24.3363C91.4593 24.7908 90.7849 25.0529 90.0158 25.1227C89.2544 25.1955 88.4561 25.0638 87.6211 24.7278L84.8426 23.6096L88.041 15.6631L90.8195 16.7813ZM88.1094 23.3501C88.9445 23.6862 89.6814 23.7181 90.3202 23.4461C90.959 23.174 91.4448 22.6243 91.7778 21.797C92.1108 20.9697 92.1427 20.2329 91.8736 19.5867C91.6075 18.9328 91.0569 18.4378 90.2219 18.1018L89.0945 17.6481L86.9821 22.8964L88.1094 23.3501Z" fill="white"/>
        <path d="M107.671 32.6788C108.313 32.1328 109.009 31.7885 109.757 31.6458C110.518 31.5041 111.25 31.5632 111.955 31.8233C112.671 32.0843 113.294 32.5264 113.824 33.1496C114.445 33.8788 114.801 34.6766 114.894 35.5431C114.986 36.4096 114.795 37.2328 114.32 38.0128L113.04 36.5077C113.224 36.0931 113.277 35.6824 113.2 35.2757C113.128 34.8752 112.941 34.4973 112.638 34.1421C112.315 33.7619 111.936 33.4991 111.5 33.3537C111.077 33.2092 110.631 33.1906 110.164 33.298C109.702 33.4116 109.253 33.6539 108.816 34.0249C108.386 34.3907 108.075 34.795 107.883 35.238C107.702 35.6819 107.645 36.1272 107.714 36.5738C107.794 37.0214 107.996 37.4353 108.319 37.8154C108.621 38.1707 108.964 38.416 109.348 38.5515C109.743 38.6879 110.161 38.6984 110.599 38.5829L111.88 40.088C111.027 40.437 110.181 40.4964 109.34 40.266C108.511 40.0365 107.784 39.5541 107.158 38.8186C106.628 38.1954 106.289 37.5121 106.14 36.7688C106.002 36.0264 106.061 35.294 106.317 34.5718C106.578 33.8557 107.029 33.2247 107.671 32.6788Z" fill="white"/>
        <path d="M122.998 48.2096L113.93 49.2258L112.997 47.3592L119.258 40.7216L120.08 42.3685L115.039 47.5195L122.181 46.5736L122.998 48.2096Z" fill="white"/>
        <path fill-rule="evenodd" clip-rule="evenodd" d="M14.2138 74.9392L11.8252 73.5343L13.5858 70.4315L15.9758 71.8339L15.9772 69.0266H19.4984L19.4997 71.8339L21.8897 70.4315L23.6503 73.5343L21.2616 74.9392L23.6503 76.344L21.8897 79.4469L19.4997 78.0444L19.4984 80.8517H15.9772L15.9758 78.0444L13.5858 79.4469L11.8252 76.344L14.2138 74.9392Z" fill="white" fill-opacity="0.3"/>
        <path fill-rule="evenodd" clip-rule="evenodd" d="M117.684 64.0995L115.295 62.6946L117.055 59.5918L119.446 60.9942L119.447 58.1869H122.968L122.969 60.9942L125.359 59.5918L127.12 62.6946L124.731 64.0995L127.12 65.5043L125.359 68.6071L122.969 67.2047L122.968 70.012H119.447L119.446 67.2047L117.055 68.6071L115.295 65.5043L117.684 64.0995Z" fill="white" fill-opacity="0.3"/>
        <animateTransform
            attributeName="transform"
            attributeType="XML"
            type="rotate"
            from="0 70 70"
            to="360 70 70"
            dur="20s"
            repeatCount="indefinite" 
        />
    </g>
</svg>
