<svg width="39" height="40" viewBox="0 0 39 40" fill="none" xmlns="http://www.w3.org/2000/svg">
<path d="M1.58579 34.7905L0.171573 36.2047L3 39.0331L4.41421 37.6189L1.58579 34.7905ZM38.9411 2.26359C38.9411 1.15902 38.0457 0.263586 36.9411 0.263586L18.9411 0.263588C17.8366 0.263587 16.9411 1.15902 16.9411 2.26359C16.9411 3.36816 17.8366 4.26359 18.9411 4.26359L34.9411 4.26359L34.9411 20.2636C34.9411 21.3682 35.8366 22.2636 36.9411 22.2636C38.0457 22.2636 38.9411 21.3682 38.9411 20.2636L38.9411 2.26359ZM4.41421 37.6189L38.3553 3.6778L35.5269 0.849373L1.58579 34.7905L4.41421 37.6189Z" fill="white"/>
</svg>
