<svg width="32" height="32" viewBox="0 0 32 32" fill="none" xmlns="http://www.w3.org/2000/svg">
<path d="M32 16L24.4575 23.5425L22.5719 21.6568L28.2288 16L22.5719 10.3431L24.4575 8.45753L32 16ZM3.77124 16L9.42809 21.6568L7.54247 23.5425L0 16L7.54247 8.45753L9.42809 10.3431L3.77124 16ZM13.0513 28H10.2135L18.9488 4H21.7865L13.0513 28Z" fill="white"/>
</svg>
<svg width="32" height="32" viewBox="0 0 32 32" fill="none" xmlns="http://www.w3.org/2000/svg">
<path d="M32 16L24.4575 23.5425L22.5719 21.6568L28.2288 16L22.5719 10.3431L24.4575 8.45753L32 16ZM3.77124 16L9.42809 21.6568L7.54247 23.5425L0 16L7.54247 8.45753L9.42809 10.3431L3.77124 16ZM13.0513 28H10.2135L18.9488 4H21.7865L13.0513 28Z" fill="white"/>
</svg>
