<svg width="32" height="32" viewBox="0 0 32 32" fill="none" xmlns="http://www.w3.org/2000/svg">
<path d="M16.0001 1.33334L8.00033 14.6667H24.0003L16.0001 1.33334ZM16.0001 6.51641L19.2905 12H12.7101L16.0001 6.51641ZM9.00033 26.6667C6.97529 26.6667 5.33366 25.0251 5.33366 23C5.33366 20.9749 6.97529 19.3333 9.00033 19.3333C11.0254 19.3333 12.667 20.9749 12.667 23C12.667 25.0251 11.0254 26.6667 9.00033 26.6667ZM9.00033 29.3333C12.4981 29.3333 15.3337 26.4979 15.3337 23C15.3337 19.5021 12.4981 16.6667 9.00033 16.6667C5.50253 16.6667 2.66699 19.5021 2.66699 23C2.66699 26.4979 5.50253 29.3333 9.00033 29.3333ZM20.0003 20.6667V26H25.3337V20.6667H20.0003ZM17.3337 28.6667V18H28.0003V28.6667H17.3337Z" fill="white"/>
</svg>
