<svg width="32" height="32" viewBox="0 0 32 32" fill="none" xmlns="http://www.w3.org/2000/svg">
<path d="M6.66667 10.6667V26.6667H12V10.6667H6.66667ZM4 9.33332L9.33333 2.66666L14.6667 9.33332V29.3333H4V9.33332ZM25.3333 21.3333V18.6667H21.3333V16H25.3333V13.3333H22.6667V10.6667H25.3333V7.99999H20V26.6667H25.3333V24H22.6667V21.3333H25.3333ZM18.6667 5.33332H26.6667C27.4031 5.33332 28 5.93028 28 6.66666V28C28 28.7364 27.4031 29.3333 26.6667 29.3333H18.6667C17.9303 29.3333 17.3333 28.7364 17.3333 28V6.66666C17.3333 5.93028 17.9303 5.33332 18.6667 5.33332Z" fill="white"/>
</svg>
