<svg width="24" height="24" viewBox="0 0 256 256" xmlns="http://www.w3.org/2000/svg">
    <polygon opacity="0.2" points="224 56 128 144 32 56 224 56" fill="currentColor"/>
    <path d="M32,56H224a0,0,0,0,1,0,0V192a8,8,0,0,1-8,8H40a8,8,0,0,1-8-8V56A0,0,0,0,1,32,56Z" fill="none" stroke="currentColor" stroke-linecap="round" stroke-linejoin="round" stroke-width="16"/>
    <polyline fill="none" points="224 56 128 144 32 56" stroke="currentColor" stroke-linecap="round" stroke-linejoin="round" stroke-width="16"/>
</svg><svg width="24" height="24" viewBox="0 0 256 256" xmlns="http://www.w3.org/2000/svg">
    <polygon opacity="0.2" points="224 56 128 144 32 56 224 56" fill="currentColor"/>
    <path d="M32,56H224a0,0,0,0,1,0,0V192a8,8,0,0,1-8,8H40a8,8,0,0,1-8-8V56A0,0,0,0,1,32,56Z" fill="none" stroke="currentColor" stroke-linecap="round" stroke-linejoin="round" stroke-width="16"/>
    <polyline fill="none" points="224 56 128 144 32 56" stroke="currentColor" stroke-linecap="round" stroke-linejoin="round" stroke-width="16"/>
</svg><svg width="24" height="24" viewBox="0 0 256 256" xmlns="http://www.w3.org/2000/svg">
    <polygon opacity="0.2" points="224 56 128 144 32 56 224 56" fill="currentColor"/>
    <path d="M32,56H224a0,0,0,0,1,0,0V192a8,8,0,0,1-8,8H40a8,8,0,0,1-8-8V56A0,0,0,0,1,32,56Z" fill="none" stroke="currentColor" stroke-linecap="round" stroke-linejoin="round" stroke-width="16"/>
    <polyline fill="none" points="224 56 128 144 32 56" stroke="currentColor" stroke-linecap="round" stroke-linejoin="round" stroke-width="16"/>
</svg>