<svg width="24" height="24" viewBox="0 0 256 256" xmlns="http://www.w3.org/2000/svg">
    <path fill="currentColor" d="M56,40H200a8,8,0,0,1,8,8V200a24,24,0,0,1-24,24H72a24,24,0,0,1-24-24V48A8,8,0,0,1,56,40Z" opacity="0.2"/>
    <line fill="none" stroke="currentColor" stroke-linecap="round" stroke-linejoin="round" stroke-width="8" x1="96" x2="160" y1="128" y2="128"/>
    <line fill="none" stroke="currentColor" stroke-linecap="round" stroke-linejoin="round" stroke-width="8" x1="96" x2="160" y1="160" y2="160"/>
    <path d="M56,40H200a8,8,0,0,1,8,8V200a24,24,0,0,1-24,24H72a24,24,0,0,1-24-24V48A8,8,0,0,1,56,40Z" fill="none" stroke="currentColor" stroke-linecap="round" stroke-linejoin="round" stroke-width="8"/>
    <line fill="none" stroke="currentColor" stroke-linecap="round" stroke-linejoin="round" stroke-width="8" x1="80" x2="80" y1="24" y2="56"/>
    <line fill="none" stroke="currentColor" stroke-linecap="round" stroke-linejoin="round" stroke-width="8" x1="128" x2="128" y1="24" y2="56"/>
    <line fill="none" stroke="currentColor" stroke-linecap="round" stroke-linejoin="round" stroke-width="8" x1="176" x2="176" y1="24" y2="56"/>
</svg>