<svg width="62" height="40" viewBox="0 0 62 40" fill="none" xmlns="http://www.w3.org/2000/svg">
<path d="M58.6487 0L62 5.83334C59.7658 6.61111 57.5315 8.16667 55.2973 10.5C53.0631 12.7222 51.9459 15.3889 51.9459 18.5C51.9459 21.6111 52.7279 23.7778 54.2919 25C55.8559 26.1111 57.9784 26.6667 60.6595 26.6667V30.8333C60.6595 33.9444 59.4865 36.2778 57.1405 37.8333C54.7946 39.2778 51.9459 40 48.5946 40C43.2324 40 39.3784 38.2778 37.0324 34.8333C34.6865 31.3889 33.5135 27.5556 33.5135 23.3333C33.5135 18.6667 34.8541 14.6667 37.5351 11.3333C40.2162 7.88889 43.5117 5.16667 47.4216 3.16667C51.3315 1.16666 55.0739 0.11111 58.6487 0ZM25.1351 0L28.4865 5.83334C26.2523 6.61111 24.018 8.16667 21.7838 10.5C19.5495 12.7222 18.4324 15.3889 18.4324 18.5C18.4324 21.6111 19.2144 23.7778 20.7784 25C22.3423 26.1111 24.4649 26.6667 27.1459 26.6667V30.8333C27.1459 33.9444 25.973 36.2778 23.627 37.8333C21.2811 39.2778 18.4324 40 15.0811 40C9.71892 40 5.86486 38.2778 3.51892 34.8333C1.17297 31.3889 0 27.5556 0 23.3333C0 18.6667 1.34054 14.6667 4.02162 11.3333C6.7027 7.88889 9.9982 5.16667 13.9081 3.16667C17.818 1.16666 21.5604 0.11111 25.1351 0Z" fill="white" fill-opacity="0.05"/>
</svg>
