<svg width="24" height="24" viewBox="0 0 256 256" xmlns="http://www.w3.org/2000/svg">
    <path fill="currentColor" d="M128,32A96,96,0,0,0,63.8,199.4h0A72,72,0,0,1,128,160a40,40,0,1,1,40-40,40,40,0,0,1-40,40,72,72,0,0,1,64.2,39.4A96,96,0,0,0,128,32Z" opacity="0.2"/>
    <circle cx="128" cy="128" fill="none" r="96" stroke="currentColor" stroke-linecap="round" stroke-linejoin="round" stroke-width="8"/>
    <circle cx="128" cy="120" fill="none" r="40" stroke="currentColor" stroke-linecap="round" stroke-linejoin="round" stroke-width="8"/>
    <path d="M63.8,199.4a72,72,0,0,1,128.4,0" fill="none" stroke="currentColor" stroke-linecap="round" stroke-linejoin="round" stroke-width="8"/>
</svg><svg width="24" height="24" viewBox="0 0 256 256" xmlns="http://www.w3.org/2000/svg">
    <path fill="currentColor" d="M128,32A96,96,0,0,0,63.8,199.4h0A72,72,0,0,1,128,160a40,40,0,1,1,40-40,40,40,0,0,1-40,40,72,72,0,0,1,64.2,39.4A96,96,0,0,0,128,32Z" opacity="0.2"/>
    <circle cx="128" cy="128" fill="none" r="96" stroke="currentColor" stroke-linecap="round" stroke-linejoin="round" stroke-width="8"/>
    <circle cx="128" cy="120" fill="none" r="40" stroke="currentColor" stroke-linecap="round" stroke-linejoin="round" stroke-width="8"/>
    <path d="M63.8,199.4a72,72,0,0,1,128.4,0" fill="none" stroke="currentColor" stroke-linecap="round" stroke-linejoin="round" stroke-width="8"/>
</svg>