<svg width="114" height="44" viewBox="0 0 114 44" fill="none" xmlns="http://www.w3.org/2000/svg">
<path d="M20.5314 43.2862C20.8272 43.2862 21.123 42.9951 21.4188 42.413C21.7147 41.8308 21.8626 40.8745 21.8626 39.5439V9.60529C21.8626 8.27469 21.7147 7.33911 21.4188 6.79855C21.123 6.21641 20.8272 5.90455 20.5314 5.86297H44.239C47.5353 5.86297 50.1131 6.2372 51.9725 6.98567C53.8319 7.73413 55.142 8.81525 55.9027 10.229C56.6633 11.6012 57.0437 13.2229 57.0437 15.094C57.0437 16.591 56.769 17.8592 56.2196 18.8987C55.7125 19.8967 55.0575 20.6867 54.2545 21.2689C53.4516 21.851 52.6487 22.2876 51.8457 22.5787V22.7034C54.5926 23.3271 56.6633 24.4498 58.0579 26.0715C59.4525 27.6516 60.1497 29.7723 60.1497 32.4335C60.1497 34.2215 59.7905 35.9471 59.0721 37.6103C58.3537 39.2736 57.0225 40.6458 55.0786 41.7269C53.1769 42.7664 50.4089 43.2862 46.7746 43.2862H20.5314ZM34.1601 36.3629H43.6685C46.0773 36.3629 47.7888 36.0302 48.803 35.3649C49.8595 34.6581 50.3878 33.5354 50.3878 31.9969C50.3878 30.5415 49.8173 29.4188 48.6763 28.6288C47.5353 27.7971 45.6547 27.3813 43.0346 27.3813H34.2235C32.9557 27.3813 32.195 27.4645 31.9415 27.6308C31.7302 27.7971 31.6245 28.3585 31.6245 29.3149V34.4917C31.6245 35.4065 31.7302 35.9471 31.9415 36.1134C32.195 36.2797 32.9346 36.3629 34.1601 36.3629ZM34.2235 21.0194H41.7034C43.7319 21.0194 45.1687 20.6867 46.0139 20.0214C46.9014 19.3145 47.3451 18.275 47.3451 16.9028C47.3451 15.5306 46.9225 14.5119 46.0773 13.8466C45.2744 13.1813 43.8375 12.8486 41.7668 12.8486H34.1601C32.8923 12.8486 32.1528 12.9318 31.9415 13.0981C31.7302 13.2229 31.6245 13.7634 31.6245 14.7198V19.1482C31.6245 20.063 31.7302 20.6036 31.9415 20.7699C32.195 20.9362 32.9557 21.0194 34.2235 21.0194Z" fill="url(#paint0_linear_244_345)"/>
<path d="M64.8455 43.2862C65.1413 43.2862 65.4371 42.9951 65.733 42.413C66.0288 41.8308 66.1767 40.8745 66.1767 39.5439V17.8384C66.1767 16.5078 66.0288 15.5514 65.733 14.9693C65.4794 14.3871 65.2047 14.0961 64.9089 14.0961H75.178V39.5439C75.178 40.8745 75.3048 41.8308 75.5583 42.413C75.8541 42.9951 76.1499 43.2862 76.4458 43.2862H64.8455ZM69.98 9.3558C68.4164 9.3558 67.1698 8.93999 66.2401 8.10836C65.3104 7.27674 64.8455 6.13325 64.8455 4.6779C64.8455 3.22255 65.2892 2.07907 66.1767 1.24744C67.1064 0.415813 68.3742 0 69.98 0C71.5859 0 72.8326 0.415813 73.72 1.24744C74.6497 2.07907 75.1146 3.22255 75.1146 4.6779C75.1146 6.13325 74.6497 7.27674 73.72 8.10836C72.8326 8.93999 71.5859 9.3558 69.98 9.3558Z" fill="url(#paint1_linear_244_345)"/>
<path d="M97.6455 43.9099C93.4196 43.9099 90.1022 43.2446 87.6934 41.914C85.3269 40.5834 83.6576 38.7746 82.6856 36.4876C81.7559 34.2007 81.2911 31.6226 81.2911 28.7535C81.2911 25.8428 81.7771 23.244 82.749 20.957C83.7633 18.67 85.4537 16.8612 87.8202 15.5306C90.1867 14.1585 93.4618 13.4724 97.6455 13.4724C101.829 13.4724 105.104 14.1585 107.471 15.5306C109.837 16.8612 111.507 18.67 112.479 20.957C113.493 23.244 114 25.8428 114 28.7535C114 31.6226 113.514 34.2007 112.542 36.4876C111.612 38.7746 109.964 40.5834 107.598 41.914C105.231 43.2446 101.914 43.9099 97.6455 43.9099ZM97.6455 37.6103C99.4204 37.6103 100.836 37.3609 101.893 36.8619C102.991 36.3213 103.773 35.4065 104.238 34.1175C104.745 32.8285 104.999 31.0405 104.999 28.7535C104.999 26.4665 104.745 24.6785 104.238 23.3895C103.773 22.0589 102.991 21.1233 101.893 20.5828C100.836 20.0006 99.4204 19.7096 97.6455 19.7096C95.8706 19.7096 94.4338 20.0006 93.3351 20.5828C92.2786 21.1649 91.4968 22.1213 90.9897 23.4519C90.5248 24.7825 90.2924 26.5705 90.2924 28.8159C90.2924 31.0197 90.5248 32.7661 90.9897 34.0551C91.4968 35.3442 92.2786 36.2589 93.3351 36.7995C94.4338 37.3401 95.8706 37.6103 97.6455 37.6103Z" fill="url(#paint2_linear_244_345)"/>
<path d="M31.9286 28.1024C30.5358 30.1125 28.9573 32.0768 27.193 33.9955C25.4288 35.8685 23.5484 37.5587 21.552 39.0663C19.6021 40.5281 17.5825 41.7159 15.4932 42.6295C13.4504 43.5432 11.454 44 9.50403 44C8.48262 44 7.36836 43.7487 6.16124 43.2462C5.00054 42.7894 3.9327 42.0585 2.95772 41.0535C1.98274 40.0485 1.19347 38.7465 0.589906 37.1476C0.0327725 35.5487 -0.129725 33.6072 0.102414 31.3231C0.288125 29.4501 0.868472 27.4857 1.84345 25.43C2.86487 23.3286 4.0952 21.4099 5.53446 19.674C7.02015 17.9381 8.66833 16.499 10.479 15.357C12.3361 14.2149 14.1932 13.6439 16.0503 13.6439C17.8146 13.6439 19.0914 14.0779 19.8806 14.9458C20.6699 15.8138 21.0181 16.8874 20.9253 18.1665C20.786 19.5826 20.3681 20.8846 19.6717 22.0723C19.0217 23.2601 18.2325 24.3336 17.3039 25.293C16.3753 26.2523 15.3771 27.1203 14.3093 27.8969C13.2879 28.6735 12.3129 29.3816 11.3844 30.0211C10.3629 30.7064 9.38797 31.3687 8.45941 32.0083C7.53086 32.6022 6.71837 33.1504 6.02195 33.6529C6.06838 34.7949 6.27731 35.7543 6.64873 36.5309C7.02015 37.3075 7.48443 37.947 8.04156 38.4496C8.59869 38.9064 9.22547 39.249 9.92188 39.4774C10.6647 39.6601 11.4076 39.7515 12.1504 39.7515C13.729 39.7515 15.3771 39.2718 17.095 38.3125C18.8128 37.3075 20.4842 36.1197 22.1092 34.7493C23.7806 33.3331 25.3127 31.8713 26.7055 30.3637C28.1448 28.8562 29.3287 27.5542 30.2572 26.4579C30.5822 26.0924 30.9072 25.8868 31.2322 25.8411C31.6036 25.7498 31.8822 25.7955 32.0679 25.9782C32.3001 26.1152 32.4161 26.3893 32.4161 26.8005C32.4161 27.1659 32.2536 27.5999 31.9286 28.1024ZM14.1004 17.5497C13.5432 17.5497 12.87 17.8238 12.0808 18.372C11.3379 18.9202 10.5951 19.7197 9.85224 20.7704C9.1094 21.7754 8.41298 23.0317 7.76299 24.5392C7.113 26.001 6.62551 27.6913 6.30052 29.61C6.85765 29.1988 7.46121 28.7877 8.1112 28.3765C8.76119 27.9197 9.41118 27.44 10.0612 26.9375C12.0576 25.43 13.4504 24.1052 14.2397 22.9631C15.0289 21.8211 15.47 20.8389 15.5629 20.0166C15.6557 19.1486 15.5629 18.5319 15.2843 18.1665C15.0057 17.7553 14.6111 17.5497 14.1004 17.5497Z" fill="white"/>
<defs>
<linearGradient id="paint0_linear_244_345" x1="88.4273" y1="34.5151" x2="17.2977" y2="55.5996" gradientUnits="userSpaceOnUse">
<stop stop-color="#D90429"/>
<stop offset="1" stop-color="#EF233C"/>
</linearGradient>
<linearGradient id="paint1_linear_244_345" x1="88.4273" y1="34.5151" x2="17.2977" y2="55.5996" gradientUnits="userSpaceOnUse">
<stop stop-color="#D90429"/>
<stop offset="1" stop-color="#EF233C"/>
</linearGradient>
<linearGradient id="paint2_linear_244_345" x1="88.4273" y1="34.5151" x2="17.2977" y2="55.5996" gradientUnits="userSpaceOnUse">
<stop stop-color="#D90429"/>
<stop offset="1" stop-color="#EF233C"/>
</linearGradient>
</defs>
</svg>
